<svg width="55.029" height="80.078" viewBox="0 0 55.029 80.078" xmlns="http://www.w3.org/2000/svg"><g id="svgGroup" stroke-linecap="round" fill-rule="evenodd" font-size="9pt" stroke="#000" stroke-width="0.25mm" fill="none" style="stroke:#000;stroke-width:0.25mm;fill:none"><path d="M 28.711 80.078 L 0 11.816 L 10.01 7.373 L 32.129 63.916 A 10324.034 10324.034 0 0 0 36.621 54.346 A 589.27 589.27 0 0 0 38.054 51.306 A 675.394 675.394 0 0 0 38.55 50.244 Q 39.551 48.096 40.503 46.045 Q 41.455 43.994 42.358 42.09 A 587.091 587.091 0 0 1 43.193 40.337 Q 43.616 39.452 43.994 38.672 A 66.505 66.505 0 0 0 46.509 32.642 A 18.947 18.947 0 0 0 47.607 26.199 A 21.208 21.208 0 0 0 47.607 26.172 A 16.941 16.941 0 0 0 47.129 22.099 A 15.469 15.469 0 0 0 46.875 21.191 A 20.06 20.06 0 0 0 44.849 16.724 A 23.176 23.176 0 0 0 41.748 12.72 A 36.012 36.012 0 0 0 37.793 9.18 L 45.996 0 A 16.75 16.75 0 0 1 49.707 3.271 A 22.628 22.628 0 0 1 52.539 7.471 A 23.498 23.498 0 0 1 54.37 12.109 A 18.524 18.524 0 0 1 54.937 15.024 A 15.474 15.474 0 0 1 55.029 16.699 A 25.751 25.751 0 0 1 53.638 25.073 A 71.768 71.768 0 0 1 50.391 33.008 A 294.319 294.319 0 0 0 48.914 36.06 A 398.765 398.765 0 0 0 47.314 39.453 A 12313.447 12313.447 0 0 0 44.756 44.951 A 13694.629 13694.629 0 0 0 43.872 46.851 A 5204.1 5204.1 0 0 0 40.259 54.639 A 661.264 661.264 0 0 0 37.185 61.373 A 595.271 595.271 0 0 0 36.768 62.305 A 6834.405 6834.405 0 0 0 28.711 80.078 Z" vector-effect="non-scaling-stroke"/></g></svg>